<mxfile host="app.diagrams.net" modified="2023-11-09T03:30:23.180Z" agent="Mozilla/5.0 (Windows NT 10.0; Win64; x64) AppleWebKit/537.36 (KHTML, like Gecko) Chrome/119.0.0.0 Safari/537.36" version="22.1.0" etag="W4NYWJ-0TV3dMCfAwW9Z" type="github">
  <diagram name="第 1 页" id="1tHfKR5lUKO5sqsqvvhd">
    <mxGraphModel>
      <root>
        <mxCell id="0" />
        <mxCell id="1" parent="0" />
      </root>
    </mxGraphModel>
  </diagram>
</mxfile>
